<svg width="24" height="24" viewBox="0 0 24 24" fill="none" xmlns="http://www.w3.org/2000/svg">
<g id="&#231;&#136;&#172;&#232;&#153;&#171;">
<rect id="&#231;&#159;&#169;&#229;&#189;&#162;" opacity="0.01" width="24" height="24" fill="#64698B"/>
<path id="&#229;&#189;&#162;&#231;&#138;&#182;&#231;&#187;&#147;&#229;&#144;&#136;" fill-rule="evenodd" clip-rule="evenodd" d="M17.2757 6.37644C16.8633 3.83483 14.6584 1.89441 12.0003 1.89441C9.3359 1.89441 7.12687 3.84398 6.72189 6.39441C6.72209 6.3932 6.76999 6.39207 6.85918 6.39102L17.2757 6.37644ZM9.01804 4.81131C9.7269 3.94284 10.8059 3.39439 12.0002 3.39439L12.105 3.3958C13.2545 3.42676 14.2891 3.96555 14.9773 4.80505L15.0345 4.87676L14.4286 4.87713L8.96097 4.88239L9.01804 4.81131ZM18.707 9.50033C18.3619 8.76076 17.9206 8.08552 17.4015 7.49506C16.6615 7.51339 14.7786 7.52357 12.7631 7.52922L6.56248 7.53626C6.04838 8.12911 5.61208 8.80583 5.27184 9.54612L3.85048 8.7255C3.49176 8.5184 3.03307 8.6413 2.82596 9.00002C2.61885 9.35874 2.74176 9.81743 3.10048 10.0245L4.72427 10.962C4.73515 10.9683 4.74612 10.9743 4.75717 10.98C4.60665 11.5473 4.50865 12.1396 4.46942 12.75H2.625C2.21079 12.75 1.875 13.0858 1.875 13.5C1.875 13.9142 2.21079 14.25 2.625 14.25H4.49237C4.55598 14.9174 4.69002 15.5614 4.88608 16.1727C4.84812 16.187 4.81082 16.2046 4.77454 16.2255L3.15074 17.163C2.79202 17.3701 2.66911 17.8288 2.87622 18.1875C3.08333 18.5462 3.54202 18.6691 3.90074 18.462L5.46453 17.5592C6.77106 20.0619 9.20862 21.7451 12 21.7451C14.7914 21.7451 17.2289 20.0619 18.5355 17.5592L20.0993 18.462C20.458 18.6691 20.9167 18.5462 21.1238 18.1875C21.3309 17.8288 21.208 17.3701 20.8493 17.163L19.2255 16.2255C19.1892 16.2046 19.1519 16.187 19.1139 16.1727C19.31 15.5614 19.444 14.9174 19.5076 14.25H21.375C21.7892 14.25 22.125 13.9142 22.125 13.5C22.125 13.0858 21.7892 12.75 21.375 12.75H19.5306C19.4902 12.1219 19.3876 11.5129 19.2296 10.9306L20.799 10.0245C21.1577 9.81743 21.2806 9.35874 21.0735 9.00002C20.8664 8.6413 20.4077 8.5184 20.049 8.7255L18.707 9.50033ZM16.6889 9.00703L16.7676 9.11803C17.5887 10.3116 18.0501 11.7891 18.0501 13.3561C18.0501 16.8994 15.7094 19.772 12.75 20.1921V16.5C12.75 16.0858 12.4142 15.75 12 15.75C11.5858 15.75 11.25 16.0858 11.25 16.5V20.1921C8.29063 19.7719 5.95007 16.8993 5.95007 13.3561L5.95193 13.184C5.98412 11.695 6.43305 10.2939 7.21106 9.14949L7.28957 9.0359L8.80434 9.03555C10.7409 9.03423 12.4519 9.03115 13.8482 9.02585L16.6889 9.00703Z" fill="#EBECF0"/>
</g>
</svg>
