<svg width="64" height="64" viewBox="0 0 64 64" fill="none" xmlns="http://www.w3.org/2000/svg">
<g id="&#230;&#159;&#165;&#231;&#156;&#139;&#230;&#150;&#135;&#230;&#161;&#163;">
<path id="Rectangle 14 (Stroke)" fill-rule="evenodd" clip-rule="evenodd" d="M12 20C12 14.4772 16.4772 10 22 10H42C47.5229 10 52 14.4772 52 20V31.8182C52 32.9228 51.1046 33.8182 50 33.8182C48.8954 33.8182 48 32.9228 48 31.8182V20C48 16.6863 45.3137 14 42 14H22C18.6863 14 16 16.6863 16 20V44C16 47.3137 18.6863 50 22 50H30C31.1046 50 32 50.8954 32 52C32 53.1046 31.1046 54 30 54H22C16.4772 54 12 49.5228 12 44V20Z" fill="white"/>
<path id="Vector 8 (Stroke)" fill-rule="evenodd" clip-rule="evenodd" d="M26.5355 22.2929C26.926 22.6834 26.926 23.3166 26.5355 23.7071L24.4142 25.8284L26.5355 27.9497C26.926 28.3403 26.926 28.9734 26.5355 29.364C26.145 29.7545 25.5118 29.7545 25.1213 29.364L22.2928 26.5355C21.9023 26.145 21.9023 25.5118 22.2928 25.1213L25.1213 22.2929C25.5118 21.9024 26.145 21.9024 26.5355 22.2929Z" fill="white"/>
<path id="Vector 10 (Stroke)" fill-rule="evenodd" clip-rule="evenodd" d="M37.8786 22.2929C37.4881 22.6834 37.4881 23.3166 37.8786 23.7071L39.9999 25.8284L37.8786 27.9497C37.4881 28.3403 37.4881 28.9734 37.8786 29.364C38.2691 29.7545 38.9023 29.7545 39.2928 29.364L42.1212 26.5355C42.5118 26.145 42.5118 25.5118 42.1212 25.1213L39.2928 22.2929C38.9023 21.9024 38.2691 21.9024 37.8786 22.2929Z" fill="white"/>
<path id="Vector 9 (Stroke)" fill-rule="evenodd" clip-rule="evenodd" d="M33.8446 19.0341C34.3781 19.177 34.6946 19.7254 34.5517 20.2588L31.4459 31.8499C31.3029 32.3834 30.7546 32.7 30.2211 32.557C29.6877 32.4141 29.3711 31.8658 29.514 31.3323L32.6198 19.7412C32.7628 19.2077 33.3111 18.8911 33.8446 19.0341Z" fill="white"/>
<path id="Ellipse 6 (Stroke)" fill-rule="evenodd" clip-rule="evenodd" d="M42 49C45.3137 49 48 46.3137 48 43C48 39.6863 45.3137 37 42 37C38.6863 37 36 39.6863 36 43C36 46.3137 38.6863 49 42 49ZM42 51C46.4183 51 50 47.4183 50 43C50 38.5817 46.4183 35 42 35C37.5817 35 34 38.5817 34 43C34 47.4183 37.5817 51 42 51Z" fill="white"/>
<path id="Vector 11 (Stroke)" fill-rule="evenodd" clip-rule="evenodd" d="M46.2928 48.2929C46.6833 47.9024 47.3165 47.9024 47.707 48.2929L50.5354 51.1213C50.926 51.5118 50.926 52.145 50.5354 52.5355C50.1449 52.9261 49.5118 52.9261 49.1212 52.5355L46.2928 49.7071C45.9023 49.3166 45.9023 48.6834 46.2928 48.2929Z" fill="white"/>
</g>
</svg>
