<svg width="48" height="48" viewBox="0 0 48 48" fill="none" xmlns="http://www.w3.org/2000/svg">
<g id="&#230;&#159;&#165;&#231;&#156;&#139;demo">
<path id="Rectangle 15 (Stroke)" fill-rule="evenodd" clip-rule="evenodd" d="M15 13.5C13.3431 13.5 12 14.8431 12 16.5V34.5C12 36.1569 13.3431 37.5 15 37.5H19.5C20.3284 37.5 21 38.1716 21 39C21 39.8284 20.3284 40.5 19.5 40.5H15C11.6863 40.5 9 37.8137 9 34.5V16.5C9 13.1863 11.6863 10.5 15 10.5H26.311C27.7462 10.5 29.0954 11.1846 29.9428 12.343L35.1318 19.4357C35.6959 20.2068 36 21.1374 36 22.0927V26.625C36 27.4534 35.3284 28.125 34.5 28.125C33.6716 28.125 33 27.4534 33 26.625V22.0927C33 21.7743 32.8986 21.4641 32.7106 21.2071L27.5216 14.1143C27.2391 13.7282 26.7894 13.5 26.311 13.5H15Z" fill="white"/>
<path id="Rectangle 16 (Stroke)" fill-rule="evenodd" clip-rule="evenodd" d="M15.75 8.25C15.75 7.83579 16.0858 7.5 16.5 7.5H26.8849C29.0301 7.5 31.0475 8.51965 32.3198 10.2469L37.6848 17.5307C38.5391 18.6906 39 20.0933 39 21.5338V31.5C39 31.9142 38.6642 32.25 38.25 32.25C37.8358 32.25 37.5 31.9142 37.5 31.5V21.5338C37.5 20.4134 37.1416 19.3224 36.4771 18.4203L31.112 11.1364C30.1225 9.79306 28.5534 9 26.8849 9H16.5C16.0858 9 15.75 8.66421 15.75 8.25Z" fill="white"/>
<path id="Vector 12 (Stroke)" fill-rule="evenodd" clip-rule="evenodd" d="M16.5 19.5C16.5 19.0858 16.8358 18.75 17.25 18.75H24C24.4142 18.75 24.75 19.0858 24.75 19.5C24.75 19.9142 24.4142 20.25 24 20.25H17.25C16.8358 20.25 16.5 19.9142 16.5 19.5Z" fill="white"/>
<path id="Vector 13 (Stroke)" fill-rule="evenodd" clip-rule="evenodd" d="M16.5 24C16.5 23.5858 16.8358 23.25 17.25 23.25H27.75C28.1642 23.25 28.5 23.5858 28.5 24C28.5 24.4142 28.1642 24.75 27.75 24.75H17.25C16.8358 24.75 16.5 24.4142 16.5 24Z" fill="white"/>
<path id="Vector 14 (Stroke)" fill-rule="evenodd" clip-rule="evenodd" d="M30.2197 29.4697C30.5126 29.1768 30.9874 29.1768 31.2803 29.4697L34.2803 32.4697C34.4948 32.6842 34.559 33.0068 34.4429 33.287C34.3268 33.5673 34.0533 33.75 33.75 33.75H24.75C24.3358 33.75 24 33.4142 24 33C24 32.5858 24.3358 32.25 24.75 32.25H31.9393L30.2197 30.5303C29.9268 30.2374 29.9268 29.7626 30.2197 29.4697Z" fill="white"/>
<path id="Vector 15 (Stroke)" fill-rule="evenodd" clip-rule="evenodd" d="M28.6553 39.9053C28.3624 40.1982 27.8876 40.1982 27.5947 39.9053L24.5947 36.9053C24.3802 36.6908 24.316 36.3682 24.4321 36.088C24.5482 35.8077 24.8217 35.625 25.125 35.625H34.125C34.5392 35.625 34.875 35.9608 34.875 36.375C34.875 36.7892 34.5392 37.125 34.125 37.125H26.9357L28.6553 38.8447C28.9482 39.1376 28.9482 39.6124 28.6553 39.9053Z" fill="white"/>
</g>
</svg>
