<svg width="20" height="20" viewBox="0 0 20 20" fill="none" xmlns="http://www.w3.org/2000/svg">
<g id="icon/&#231;&#186;&#191;&#230;&#128;&#167;/&#228;&#187;&#163;&#231;&#160;&#129;">
<path id="&#229;&#189;&#162;&#231;&#138;&#182;&#231;&#187;&#147;&#229;&#144;&#136;" fill-rule="evenodd" clip-rule="evenodd" d="M16.16 0C18.2823 0 20 1.71388 20 3.83002V16.17C20 18.2911 18.2873 20 16.17 20H3.84C1.71886 20 0.0100096 18.2873 0.0100096 16.17L0.00965667 7.03064C0.00330251 6.99136 0 6.95105 0 6.90997V3.83002C0 1.70888 1.71269 0 3.82999 0H16.16ZM18.4998 7.66998H1.51001V16.17C1.51001 17.431 2.50243 18.4536 3.75425 18.4985L3.84 18.5H16.17C17.4596 18.5 18.5 17.4619 18.5 16.17L18.4998 7.66998ZM10.8414 9.01758C11.2459 9.10674 11.5016 9.50693 11.4124 9.91144L10.0524 16.0814C9.96327 16.4859 9.56307 16.7416 9.15857 16.6524C8.75406 16.5632 8.49843 16.163 8.58759 15.7585L9.94757 9.58856C10.0367 9.18406 10.4369 8.92842 10.8414 9.01758ZM7.47033 10.3097C7.76323 10.6026 7.76323 11.0775 7.47033 11.3704L5.94937 12.891L7.47162 14.421C7.7638 14.7146 7.76264 15.1895 7.46904 15.4816C7.17543 15.7738 6.70056 15.7727 6.40838 15.479L4.35839 13.4191L4.347 13.4066L4.31587 13.3726C4.2607 13.3072 4.21851 13.2345 4.1893 13.1579L4.16983 13.0999C4.11304 12.9043 4.13738 12.6902 4.24285 12.5106C4.26006 12.4815 4.27826 12.4547 4.29837 12.429C4.31717 12.4049 4.3376 12.3818 4.35968 12.3597L6.40967 10.3097C6.70256 10.0168 7.17744 10.0168 7.47033 10.3097ZM13.6503 10.3097L15.6951 12.3545C15.6964 12.3558 15.6977 12.3571 15.6991 12.3584L15.743 12.406L15.7003 12.3597C15.7717 12.431 15.8257 12.5132 15.8623 12.6009C15.9361 12.7777 15.9392 12.9773 15.8714 13.1562C15.8391 13.2408 15.7923 13.3191 15.7302 13.3887C15.721 13.3991 15.7115 13.4092 15.7016 13.4191L13.6516 15.4791C13.3594 15.7727 12.8846 15.7738 12.591 15.4816C12.2973 15.1894 12.2962 14.7146 12.5884 14.421L14.1105 12.891L12.5897 11.3704C12.2968 11.0775 12.2968 10.6026 12.5897 10.3097C12.8826 10.0168 13.3574 10.0168 13.6503 10.3097ZM16.16 1.5H3.82999C2.54037 1.5 1.5 2.53805 1.5 3.83002V6.15975H18.5V3.83002C18.5 2.57166 17.5006 1.54648 16.2459 1.50154L16.16 1.5ZM3.82999 2.79999C4.39884 2.79999 4.85998 3.26116 4.85998 3.83002C4.85998 4.39887 4.39884 4.85998 3.82999 4.85998C3.26113 4.85998 2.79999 4.39887 2.79999 3.83002C2.79999 3.26116 3.26113 2.79999 3.82999 2.79999Z" fill="#666666"/>
</g>
</svg>
