<svg width="24" height="24" viewBox="0 0 24 24" fill="none" xmlns="http://www.w3.org/2000/svg">
<g id="Folder">
<path id="&#229;&#189;&#162;&#231;&#138;&#182;&#231;&#187;&#147;&#229;&#144;&#136;" fill-rule="evenodd" clip-rule="evenodd" d="M9.19341 3.00001H3.31003C2.31041 3.00116 1.50137 3.81104 1.50024 4.81004V19.5642C1.50137 20.564 2.31043 21.3739 3.30918 21.375H20.6905C21.6901 21.3739 22.4991 20.564 22.5002 19.565V7.35693L22.4984 7.27629C22.4552 6.3139 21.6631 5.54717 20.6913 5.54608L12.4866 5.54588L10.4734 3.53066C10.1352 3.19033 9.67309 2.99872 9.19341 3.00001ZM9.19541 4.49996C9.27618 4.49974 9.35372 4.53189 9.41077 4.58932L11.5832 6.7639C11.7621 6.94444 12.0088 7.04685 12.266 7.04603L20.6904 7.04604C20.8609 7.04623 21 7.1855 21.0002 7.35773V9.65625H3.00023L3.00023 4.81084C3.00042 4.63944 3.13956 4.50016 3.31088 4.49996L9.19541 4.49996ZM3.00023 11.1562L3.00023 19.5633C3.00042 19.7355 3.13955 19.8748 3.31001 19.875H20.6896C20.8609 19.8748 21 19.7355 21.0002 19.5641L21.0002 11.1562H3.00023Z" fill="#666666"/>
</g>
</svg>
