<svg width="48" height="48" viewBox="0 0 48 48" fill="none" xmlns="http://www.w3.org/2000/svg">
<g id="&#229;&#191;&#171;&#233;&#128;&#159;&#229;&#188;&#128;&#229;&#167;&#139;">
<path id="Union (Stroke)" fill-rule="evenodd" clip-rule="evenodd" d="M23.8125 13.0312C19.2562 13.0312 15.5625 16.7249 15.5625 21.2812C15.5625 24.1034 16.9782 26.5952 19.145 28.0851C20.1563 28.7804 21 29.9649 21 31.4262V33C21 33.4142 21.3358 33.75 21.75 33.75H26.25C26.6642 33.75 27 33.4142 27 33V31.1637C27 29.763 27.7781 28.6132 28.7252 27.9098C30.7532 26.4039 32.0625 23.9956 32.0625 21.2812C32.0625 16.7249 28.3688 13.0312 23.8125 13.0312ZM12.5625 21.2812C12.5625 15.068 17.5993 10.0312 23.8125 10.0312C30.0257 10.0312 35.0625 15.068 35.0625 21.2812C35.0625 24.9851 33.271 28.2709 30.5137 30.3184C30.1426 30.594 30 30.9225 30 31.1637V33C30 35.0711 28.3211 36.75 26.25 36.75H21.75C19.6789 36.75 18 35.0711 18 33V31.4262C18 31.1752 17.8449 30.8319 17.4453 30.5571C14.4993 28.5316 12.5625 25.1328 12.5625 21.2812Z" fill="white"/>
<path id="Ellipse 5 (Stroke)" fill-rule="evenodd" clip-rule="evenodd" d="M23.625 16.5C23.625 16.0858 23.9608 15.75 24.375 15.75C25.0152 15.75 25.6491 15.8761 26.2406 16.1211C26.832 16.3661 27.3695 16.7252 27.8221 17.1779C28.2748 17.6305 28.6339 18.168 28.8789 18.7594C29.1239 19.3509 29.25 19.9848 29.25 20.625C29.25 21.0392 28.9142 21.375 28.5 21.375C28.0858 21.375 27.75 21.0392 27.75 20.625C27.75 20.1818 27.6627 19.7429 27.4931 19.3334C27.3235 18.924 27.0749 18.5519 26.7615 18.2385C26.4481 17.9251 26.076 17.6765 25.6666 17.5069C25.2571 17.3373 24.8182 17.25 24.375 17.25C23.9608 17.25 23.625 16.9142 23.625 16.5Z" fill="white"/>
<path id="Vector 2 (Stroke)" fill-rule="evenodd" clip-rule="evenodd" d="M6.75 20.0625C6.75 19.6483 7.08579 19.3125 7.5 19.3125H9.75C10.1642 19.3125 10.5 19.6483 10.5 20.0625C10.5 20.4767 10.1642 20.8125 9.75 20.8125H7.5C7.08579 20.8125 6.75 20.4767 6.75 20.0625Z" fill="white"/>
<path id="Vector 4 (Stroke)" fill-rule="evenodd" clip-rule="evenodd" d="M33.782 10.5588C33.4891 10.2659 33.4891 9.79102 33.782 9.49813L35.373 7.90714C35.6659 7.61424 36.1408 7.61424 36.4337 7.90714C36.7266 8.20003 36.7266 8.6749 36.4337 8.9678L34.8427 10.5588C34.5498 10.8517 34.0749 10.8517 33.782 10.5588Z" fill="white"/>
<path id="Vector 5 (Stroke)" fill-rule="evenodd" clip-rule="evenodd" d="M13.7465 10.5588C14.0394 10.2659 14.0394 9.79102 13.7465 9.49813L12.1555 7.90714C11.8626 7.61424 11.3878 7.61424 11.0949 7.90714C10.802 8.20003 10.802 8.6749 11.0949 8.9678L12.6859 10.5588C12.9788 10.8517 13.4536 10.8517 13.7465 10.5588Z" fill="white"/>
<path id="Vector 6 (Stroke)" fill-rule="evenodd" clip-rule="evenodd" d="M23.8125 7.5C24.2267 7.5 24.5625 7.16421 24.5625 6.75V4.5C24.5625 4.08579 24.2267 3.75 23.8125 3.75C23.3983 3.75 23.0625 4.08579 23.0625 4.5V6.75C23.0625 7.16421 23.3983 7.5 23.8125 7.5Z" fill="white"/>
<path id="Vector 3 (Stroke)" fill-rule="evenodd" clip-rule="evenodd" d="M37.125 20.0625C37.125 19.6483 37.4608 19.3125 37.875 19.3125H40.125C40.5392 19.3125 40.875 19.6483 40.875 20.0625C40.875 20.4767 40.5392 20.8125 40.125 20.8125H37.875C37.4608 20.8125 37.125 20.4767 37.125 20.0625Z" fill="white"/>
<path id="Vector 7 (Stroke)" fill-rule="evenodd" clip-rule="evenodd" d="M19.5 39.75C19.5 39.3358 19.8358 39 20.25 39L27.75 39C28.1642 39 28.5 39.3358 28.5 39.75C28.5 40.1642 28.1642 40.5 27.75 40.5L20.25 40.5C19.8358 40.5 19.5 40.1642 19.5 39.75Z" fill="white"/>
</g>
</svg>
